<mxfile host="Electron" modified="2024-06-15T00:34:26.374Z" agent="Mozilla/5.0 (Windows NT 10.0; Win64; x64) AppleWebKit/537.36 (KHTML, like Gecko) draw.io/24.5.1 Chrome/124.0.6367.207 Electron/30.0.6 Safari/537.36" etag="wyN2v7roFV1VYD3NB8at" version="24.5.1" type="device">
  <diagram id="C5RBs43oDa-KdzZeNtuy" name="Page-1">
    <mxGraphModel dx="1500" dy="887" grid="1" gridSize="10" guides="1" tooltips="1" connect="1" arrows="1" fold="1" page="1" pageScale="1" pageWidth="827" pageHeight="1169" math="0" shadow="0">
      <root>
        <mxCell id="WIyWlLk6GJQsqaUBKTNV-0" />
        <mxCell id="WIyWlLk6GJQsqaUBKTNV-1" parent="WIyWlLk6GJQsqaUBKTNV-0" />
        <mxCell id="P_RixyA19fJqiTt09zhc-54" value="Usuario" style="swimlane;fontStyle=1;align=center;verticalAlign=top;childLayout=stackLayout;horizontal=1;startSize=26;horizontalStack=0;resizeParent=1;resizeParentMax=0;resizeLast=0;collapsible=1;marginBottom=0;whiteSpace=wrap;html=1;" parent="WIyWlLk6GJQsqaUBKTNV-1" vertex="1">
          <mxGeometry x="110" y="71" width="180" height="184" as="geometry" />
        </mxCell>
        <mxCell id="P_RixyA19fJqiTt09zhc-55" value="&lt;div&gt;&lt;span style=&quot;background-color: initial;&quot;&gt;+ Nombre: String&lt;/span&gt;&lt;br&gt;&lt;/div&gt;&lt;div&gt;+ ContraseÃ±a: String&lt;/div&gt;&lt;div&gt;&lt;br&gt;&lt;div&gt;&lt;br&gt;&lt;/div&gt;&lt;/div&gt;" style="text;strokeColor=none;fillColor=none;align=left;verticalAlign=top;spacingLeft=4;spacingRight=4;overflow=hidden;rotatable=0;points=[[0,0.5],[1,0.5]];portConstraint=eastwest;whiteSpace=wrap;html=1;" parent="P_RixyA19fJqiTt09zhc-54" vertex="1">
          <mxGeometry y="26" width="180" height="124" as="geometry" />
        </mxCell>
        <mxCell id="P_RixyA19fJqiTt09zhc-56" value="" style="line;strokeWidth=1;fillColor=none;align=left;verticalAlign=middle;spacingTop=-1;spacingLeft=3;spacingRight=3;rotatable=0;labelPosition=right;points=[];portConstraint=eastwest;strokeColor=inherit;" parent="P_RixyA19fJqiTt09zhc-54" vertex="1">
          <mxGeometry y="150" width="180" height="8" as="geometry" />
        </mxCell>
        <mxCell id="P_RixyA19fJqiTt09zhc-57" value="+ method(type): type" style="text;strokeColor=none;fillColor=none;align=left;verticalAlign=top;spacingLeft=4;spacingRight=4;overflow=hidden;rotatable=0;points=[[0,0.5],[1,0.5]];portConstraint=eastwest;whiteSpace=wrap;html=1;" parent="P_RixyA19fJqiTt09zhc-54" vertex="1">
          <mxGeometry y="158" width="180" height="26" as="geometry" />
        </mxCell>
        <mxCell id="P_RixyA19fJqiTt09zhc-62" value="UsuarioModulo" style="swimlane;fontStyle=1;align=center;verticalAlign=top;childLayout=stackLayout;horizontal=1;startSize=26;horizontalStack=0;resizeParent=1;resizeParentMax=0;resizeLast=0;collapsible=1;marginBottom=0;whiteSpace=wrap;html=1;" parent="WIyWlLk6GJQsqaUBKTNV-1" vertex="1">
          <mxGeometry x="450" y="70" width="220" height="260" as="geometry" />
        </mxCell>
        <mxCell id="P_RixyA19fJqiTt09zhc-63" value="+ Usuario: &amp;lt;USUARIO&amp;gt;&lt;div&gt;+ Modulo:&amp;nbsp; &amp;lt;MODULO&amp;gt;&lt;/div&gt;&lt;div&gt;+ Categoria: Int&lt;br&gt;&lt;/div&gt;" style="text;strokeColor=none;fillColor=none;align=left;verticalAlign=top;spacingLeft=4;spacingRight=4;overflow=hidden;rotatable=0;points=[[0,0.5],[1,0.5]];portConstraint=eastwest;whiteSpace=wrap;html=1;" parent="P_RixyA19fJqiTt09zhc-62" vertex="1">
          <mxGeometry y="26" width="220" height="194" as="geometry" />
        </mxCell>
        <mxCell id="P_RixyA19fJqiTt09zhc-64" value="" style="line;strokeWidth=1;fillColor=none;align=left;verticalAlign=middle;spacingTop=-1;spacingLeft=3;spacingRight=3;rotatable=0;labelPosition=right;points=[];portConstraint=eastwest;strokeColor=inherit;" parent="P_RixyA19fJqiTt09zhc-62" vertex="1">
          <mxGeometry y="220" width="220" height="8" as="geometry" />
        </mxCell>
        <mxCell id="P_RixyA19fJqiTt09zhc-65" value="+ Obtener_edad(): int" style="text;strokeColor=none;fillColor=none;align=left;verticalAlign=top;spacingLeft=4;spacingRight=4;overflow=hidden;rotatable=0;points=[[0,0.5],[1,0.5]];portConstraint=eastwest;whiteSpace=wrap;html=1;" parent="P_RixyA19fJqiTt09zhc-62" vertex="1">
          <mxGeometry y="228" width="220" height="32" as="geometry" />
        </mxCell>
        <mxCell id="s3YrhpVgowpJ8DNU9XVm-0" value="Factura&lt;div&gt;&lt;br&gt;&lt;/div&gt;" style="swimlane;fontStyle=1;align=center;verticalAlign=top;childLayout=stackLayout;horizontal=1;startSize=26;horizontalStack=0;resizeParent=1;resizeParentMax=0;resizeLast=0;collapsible=1;marginBottom=0;whiteSpace=wrap;html=1;" vertex="1" parent="WIyWlLk6GJQsqaUBKTNV-1">
          <mxGeometry x="740" y="451" width="180" height="192" as="geometry" />
        </mxCell>
        <mxCell id="s3YrhpVgowpJ8DNU9XVm-1" value="+ Modulo:&amp;nbsp; &amp;lt;MODULO&amp;gt;" style="text;strokeColor=none;fillColor=none;align=left;verticalAlign=top;spacingLeft=4;spacingRight=4;overflow=hidden;rotatable=0;points=[[0,0.5],[1,0.5]];portConstraint=eastwest;whiteSpace=wrap;html=1;" vertex="1" parent="s3YrhpVgowpJ8DNU9XVm-0">
          <mxGeometry y="26" width="180" height="104" as="geometry" />
        </mxCell>
        <mxCell id="s3YrhpVgowpJ8DNU9XVm-2" value="" style="line;strokeWidth=1;fillColor=none;align=left;verticalAlign=middle;spacingTop=-1;spacingLeft=3;spacingRight=3;rotatable=0;labelPosition=right;points=[];portConstraint=eastwest;strokeColor=inherit;" vertex="1" parent="s3YrhpVgowpJ8DNU9XVm-0">
          <mxGeometry y="130" width="180" height="8" as="geometry" />
        </mxCell>
        <mxCell id="s3YrhpVgowpJ8DNU9XVm-3" value="+ CargarFactura()&lt;div&gt;+ ListarFactura()&lt;br&gt;&lt;/div&gt;" style="text;strokeColor=none;fillColor=none;align=left;verticalAlign=top;spacingLeft=4;spacingRight=4;overflow=hidden;rotatable=0;points=[[0,0.5],[1,0.5]];portConstraint=eastwest;whiteSpace=wrap;html=1;" vertex="1" parent="s3YrhpVgowpJ8DNU9XVm-0">
          <mxGeometry y="138" width="180" height="54" as="geometry" />
        </mxCell>
        <mxCell id="s3YrhpVgowpJ8DNU9XVm-4" value="Modulo" style="swimlane;fontStyle=1;align=center;verticalAlign=top;childLayout=stackLayout;horizontal=1;startSize=26;horizontalStack=0;resizeParent=1;resizeParentMax=0;resizeLast=0;collapsible=1;marginBottom=0;whiteSpace=wrap;html=1;" vertex="1" parent="WIyWlLk6GJQsqaUBKTNV-1">
          <mxGeometry x="857" y="71" width="180" height="184" as="geometry" />
        </mxCell>
        <mxCell id="s3YrhpVgowpJ8DNU9XVm-5" value="&lt;div&gt;&lt;span style=&quot;background-color: initial;&quot;&gt;+ Nombre: String&lt;/span&gt;&lt;/div&gt;&lt;div&gt;&lt;div&gt;&lt;br&gt;&lt;/div&gt;&lt;/div&gt;" style="text;strokeColor=none;fillColor=none;align=left;verticalAlign=top;spacingLeft=4;spacingRight=4;overflow=hidden;rotatable=0;points=[[0,0.5],[1,0.5]];portConstraint=eastwest;whiteSpace=wrap;html=1;" vertex="1" parent="s3YrhpVgowpJ8DNU9XVm-4">
          <mxGeometry y="26" width="180" height="124" as="geometry" />
        </mxCell>
        <mxCell id="s3YrhpVgowpJ8DNU9XVm-6" value="" style="line;strokeWidth=1;fillColor=none;align=left;verticalAlign=middle;spacingTop=-1;spacingLeft=3;spacingRight=3;rotatable=0;labelPosition=right;points=[];portConstraint=eastwest;strokeColor=inherit;" vertex="1" parent="s3YrhpVgowpJ8DNU9XVm-4">
          <mxGeometry y="150" width="180" height="8" as="geometry" />
        </mxCell>
        <mxCell id="s3YrhpVgowpJ8DNU9XVm-7" value="+ method(type): type" style="text;strokeColor=none;fillColor=none;align=left;verticalAlign=top;spacingLeft=4;spacingRight=4;overflow=hidden;rotatable=0;points=[[0,0.5],[1,0.5]];portConstraint=eastwest;whiteSpace=wrap;html=1;" vertex="1" parent="s3YrhpVgowpJ8DNU9XVm-4">
          <mxGeometry y="158" width="180" height="26" as="geometry" />
        </mxCell>
        <mxCell id="s3YrhpVgowpJ8DNU9XVm-8" style="edgeStyle=orthogonalEdgeStyle;rounded=0;orthogonalLoop=1;jettySize=auto;html=1;entryX=0.464;entryY=1.162;entryDx=0;entryDy=0;entryPerimeter=0;" edge="1" parent="WIyWlLk6GJQsqaUBKTNV-1" source="s3YrhpVgowpJ8DNU9XVm-0" target="s3YrhpVgowpJ8DNU9XVm-7">
          <mxGeometry relative="1" as="geometry">
            <Array as="points">
              <mxPoint x="890" y="259" />
            </Array>
          </mxGeometry>
        </mxCell>
        <mxCell id="s3YrhpVgowpJ8DNU9XVm-15" value="1-N" style="edgeLabel;html=1;align=center;verticalAlign=middle;resizable=0;points=[];" vertex="1" connectable="0" parent="s3YrhpVgowpJ8DNU9XVm-8">
          <mxGeometry x="-0.7557" relative="1" as="geometry">
            <mxPoint as="offset" />
          </mxGeometry>
        </mxCell>
        <mxCell id="s3YrhpVgowpJ8DNU9XVm-16" value="1" style="edgeLabel;html=1;align=center;verticalAlign=middle;resizable=0;points=[];" vertex="1" connectable="0" parent="s3YrhpVgowpJ8DNU9XVm-8">
          <mxGeometry x="0.3833" y="1" relative="1" as="geometry">
            <mxPoint as="offset" />
          </mxGeometry>
        </mxCell>
        <mxCell id="s3YrhpVgowpJ8DNU9XVm-9" style="edgeStyle=orthogonalEdgeStyle;rounded=0;orthogonalLoop=1;jettySize=auto;html=1;entryX=-0.016;entryY=0.33;entryDx=0;entryDy=0;entryPerimeter=0;" edge="1" parent="WIyWlLk6GJQsqaUBKTNV-1" source="P_RixyA19fJqiTt09zhc-55" target="P_RixyA19fJqiTt09zhc-63">
          <mxGeometry relative="1" as="geometry" />
        </mxCell>
        <mxCell id="s3YrhpVgowpJ8DNU9XVm-11" value="1" style="edgeLabel;html=1;align=center;verticalAlign=middle;resizable=0;points=[];" vertex="1" connectable="0" parent="s3YrhpVgowpJ8DNU9XVm-9">
          <mxGeometry x="-0.7612" y="-1" relative="1" as="geometry">
            <mxPoint as="offset" />
          </mxGeometry>
        </mxCell>
        <mxCell id="s3YrhpVgowpJ8DNU9XVm-12" value="1 - N" style="edgeLabel;html=1;align=center;verticalAlign=middle;resizable=0;points=[];" vertex="1" connectable="0" parent="s3YrhpVgowpJ8DNU9XVm-9">
          <mxGeometry x="0.5596" y="2" relative="1" as="geometry">
            <mxPoint as="offset" />
          </mxGeometry>
        </mxCell>
        <mxCell id="s3YrhpVgowpJ8DNU9XVm-10" style="edgeStyle=orthogonalEdgeStyle;rounded=0;orthogonalLoop=1;jettySize=auto;html=1;entryX=1.005;entryY=0.322;entryDx=0;entryDy=0;entryPerimeter=0;" edge="1" parent="WIyWlLk6GJQsqaUBKTNV-1" source="s3YrhpVgowpJ8DNU9XVm-5" target="P_RixyA19fJqiTt09zhc-63">
          <mxGeometry relative="1" as="geometry" />
        </mxCell>
        <mxCell id="s3YrhpVgowpJ8DNU9XVm-13" value="1 - N" style="edgeLabel;html=1;align=center;verticalAlign=middle;resizable=0;points=[];" vertex="1" connectable="0" parent="s3YrhpVgowpJ8DNU9XVm-10">
          <mxGeometry x="0.3526" y="1" relative="1" as="geometry">
            <mxPoint as="offset" />
          </mxGeometry>
        </mxCell>
        <mxCell id="s3YrhpVgowpJ8DNU9XVm-14" value="1" style="edgeLabel;html=1;align=center;verticalAlign=middle;resizable=0;points=[];" vertex="1" connectable="0" parent="s3YrhpVgowpJ8DNU9XVm-10">
          <mxGeometry x="-0.5687" y="-1" relative="1" as="geometry">
            <mxPoint as="offset" />
          </mxGeometry>
        </mxCell>
      </root>
    </mxGraphModel>
  </diagram>
</mxfile>
